<svg xmlns="http://www.w3.org/2000/svg" viewBox="-90 0 600 500"><defs><style>.cls-1{fill:#fff;}</style></defs><g id="Livello_2" data-name="Livello 2"><g id="Livello_1-2" data-name="Livello 1"><path class="cls-1" d="M213.93,399.73c-10.52,1.06-20.77,1.06-27.77-.06C128.87,393.51,80.66,370,44.48,324.8S-6.37,227.59,2.53,170.58C18.77,66.47,108.32-5.6,210.91.34A199.73,199.73,0,0,1,398.73,184.75c7.84,100.74-63.05,202.38-184.8,215ZM299,185.3c-.9-1.35-2.18-4.82-4.7-6.83-14.62-11.88-29.35-23.64-44.47-34.78-2.69-2-8.12-2.13-11.59-1-17.25,5.66-34.11,12.49-51.41,18-6.72,2.13-9.35,5.77-10.25,12.32-2.85,20.61-6.27,41.16-9,61.83-.39,2.91.9,7.33,3,9.18,15.34,13,31.08,25.76,46.93,38.19,2.24,1.73,6.49,3.19,8.73,2.24,18.82-8,37.47-16.35,56-25a10.41,10.41,0,0,0,5-6.55c4-21.73,7.56-43.57,11.65-67.59ZM240.08,93.85c.29-3.86.23-9.85,1.29-15.68,1.23-7-1.51-10.69-7.67-13.88-12.94-6.61-25.31-14.23-38.19-20.89-3.53-1.79-8.46-3.14-12-2.13-15.51,4.31-30.85,9.41-46.14,14.5-10.87,3.64-18.2,10-17.25,23,.34,4.82-1.17,9.8-1.79,14.73-3.25,24.13-3.25,24.19,17.53,35.67,11.81,6.55,23.4,17.19,35.72,18.2,12.66,1,26.21-7.23,39.26-11.76,27.94-9.86,27.94-9.91,29.29-41.78ZM146,356.82c17.69-2.74,34-5.1,50.29-8.12,2.23-.39,4.93-3.92,5.6-6.49,3.13-12.16,5.15-24.53,8.51-36.63,1.62-5.94-.34-9-4.65-12.43-15-11.87-29.62-24.31-44.85-36a18.56,18.56,0,0,0-12.44-3.3c-16,2-32,4.59-47.88,7.62-3,.55-6.88,3.92-7.78,6.77a327.68,327.68,0,0,0-9.13,36.46c-.62,3.3,1.4,8.68,4,10.75,16.57,13.05,33.6,25.54,50.62,38,2.47,1.85,5.77,2.58,7.68,3.36Zm183.46-67.14c12.26-6.27,23.91-11.76,35-18.09,3-1.73,5.49-5.54,6.78-9a174.27,174.27,0,0,0,9.52-89.54c-.79-5.1-24-21.79-29.06-20.5-2.07.51-3.81,2.52-5.49,4-8.4,7.45-17.08,14.62-24.92,22.63A27.94,27.94,0,0,0,314,192.41c-3.87,19.43-7.12,39-10,58.52-.56,3.75.28,8.79,2.47,11.7,6.94,9.18,14.89,17.59,23.07,27.05Zm-224-222.15c-6.44-1.06-11.32-1.62-16.13-2.69-8.46-1.9-14.73.29-20.89,7-18.93,20.44-33.43,43.4-42.28,69.83-7.89,23.69-7.84,23.47,15.4,32.54,5.26,2.07,8.17,1.34,11.76-2.91,13.83-16.47,28.05-32.6,42.05-48.89,1.46-1.68,3.08-3.75,3.36-5.88,2.41-16,4.48-32,6.73-48.95ZM16.92,182c0,7.51-.05,14.06,0,20.55.51,34.89,10.53,66.87,29.18,96.21,4.09,6.38,19.15,9.07,20.83,3.59,4.65-15.07,8-30.52,11.43-45.93.39-1.73-1.74-4.14-2.8-6.16-7.51-14.28-16.36-28.05-22.29-43C46.72,190.56,32.6,187.09,16.92,182ZM199.26,16.57c-.95,1.06-2,2.13-2.91,3.19,2.69,3.36,4.71,7.84,8.18,10,14.11,8.51,28.62,16.41,43.06,24.25,2.74,1.51,6.16,2,9.35,2.46,16.3,2.07,32.6,4.15,48.95,5.83,3,.28,6.1-1.4,9.18-2.13C280.74,30.52,242.5,16.4,199.26,16.57ZM146.51,374.63c40,11.31,76.67,10.47,113.79-2.69C222.5,365.9,185.65,361,146.51,374.63ZM328.79,69.82c-1.29.39-2.52.73-3.81,1.12,1,3.08,1.52,6.44,3,9.24,8.85,16.52,18.59,32.59,26.6,49.5,4,8.46,10.19,11.43,19.43,14.68a180.64,180.64,0,0,0-45.25-74.54ZM299.34,352.28c16.69-6.94,50.57-41.44,54.15-57.46-7.22,4.37-15.51,7.06-20.27,12.66C320.62,322.38,309.59,338.51,299.34,352.28Z"/></g></g></svg>