<svg xmlns="http://www.w3.org/2000/svg" viewBox="-50 0 550 400"><defs><style>.cls-1{fill:#fff;}</style></defs><g id="Livello_2" data-name="Livello 2"><g id="Livello_1-2" data-name="Livello 1"><g id="Livello_2-2" data-name="Livello 2"><g id="Livello_1-2-2" data-name="Livello 1-2"><path class="cls-1" d="M448.46,88.25h-31.8V63.79A21.83,21.83,0,0,0,394.82,42H363V21.8A21.8,21.8,0,0,0,341.18,0h-38.1a21.81,21.81,0,0,0-21.79,21.8V88.25H178.65V21.8A21.83,21.83,0,0,0,156.83,0H118.77A21.83,21.83,0,0,0,97,21.8V42H65.07A21.81,21.81,0,0,0,43.3,63.79V88.25H11.42A11.41,11.41,0,0,0,0,99.65v51.13a11.42,11.42,0,0,0,11.38,11.46H43.29v25.34a21.83,21.83,0,0,0,21.78,21.79H96.91v20.16a21.85,21.85,0,0,0,21.84,21.85h38.08a21.84,21.84,0,0,0,21.82-21.81V162.24H281.29v67.31a21.82,21.82,0,0,0,21.79,21.83h38.08A21.81,21.81,0,0,0,363,229.57h0v-20.2h31.85a21.87,21.87,0,0,0,21.84-21.83v-25.3h31.79A11.43,11.43,0,0,0,460,150.9V99.7a11.42,11.42,0,0,0-11.39-11.45ZM22.86,139.34V111.11H43.28v28.23Zm43.27,47.17V64.81H96.94v121.7Zm89.65,42h-36V22.86h36Zm22.87-89.14V111.11H281.29v28.23Zm161.49,89.14h-36V22.86h36Zm53.64-42H363V64.81h30.81ZM437,139.34H416.66V111.11H437Z"/></g></g></g></g></svg>