<svg xmlns="http://www.w3.org/2000/svg" viewBox="-70 0 600 500"><defs><style>.cls-1{fill:#fff;}</style></defs><g id="Livello_2" data-name="Livello 2"><g id="Livello_1-2" data-name="Livello 1"><g id="Livello_2-2" data-name="Livello 2"><g id="Livello_1-2-2" data-name="Livello 1-2"><path class="cls-1" d="M45.29,172.2l211.5,153h129V302.52H267.05a8.17,8.17,0,0,1-5.24-1.9L59.27,152.42l-14,19.8ZM78.68,245a8.13,8.13,0,1,1,0,16.26H8.13a8.13,8.13,0,1,1,0-16.26Zm55.69,56.41a8.13,8.13,0,0,1,0,16.26H63.84a8.13,8.13,0,0,1,0-16.26Zm189.24-54.86a8.1,8.1,0,0,1-13.67-8.7l19.08-30a137.61,137.61,0,0,1-20.2-17.45q-.94-1-1.86-2l-33.5,29.2a8.11,8.11,0,0,1-10.77-12.12l.09-.08,34-29.64a130.18,130.18,0,0,1-13.23-23.68l-41.33,12.2a8.11,8.11,0,0,1-4.59-15.56h0L278,136.86a155.93,155.93,0,0,1-5.44-26.53c-19.16-.5-69-4.69-83.46-34.13a170.16,170.16,0,0,1-10-25.86c-4.38-13.78-7.55-23.69-24.86-32.13L103.51,89.92a68.81,68.81,0,0,1,13.86,84.9L269.72,286.27H385.79V255.41a29.25,29.25,0,0,0-19.62-28.13l-.41-.16a163,163,0,0,1-23-10.57l-19.11,30ZM85.59,87.22a4.53,4.53,0,0,1,.3-.46l.3-.4L144.57,3.9a8.12,8.12,0,0,1,10-3.32c29.67,11.9,33.93,25.34,40.12,44.85a165.63,165.63,0,0,0,9,23.63c12.66,25.75,69.45,25.22,75.54,25.09h.15a8.12,8.12,0,0,1,8.7,7.49c2.74,35.55,16.12,60.39,32.53,77.63s35.82,27.09,50.75,32.61l.39.12A45.76,45.76,0,0,1,402,255.39v77.95a8.13,8.13,0,0,1-8.13,8.13H254.2a8,8,0,0,1-4.76-1.51L29.27,180.64h0a8.08,8.08,0,0,1-1.85-11.22l23.07-32.59c.12-.21.26-.42.4-.62s.19-.25.29-.37l34.41-48.6Zm18.58,77.9a53.41,53.41,0,0,0,3.26-7.77,52.49,52.49,0,0,0-13.36-54.07L68.69,139.16l35.48,26Z"/></g></g></g></g></svg>