<svg xmlns="http://www.w3.org/2000/svg" viewBox="-50 0 600 500"><defs><style>.cls-1{fill:#fff;}</style></defs><g id="Livello_2" data-name="Livello 2"><g id="Livello_1-2" data-name="Livello 1"><g id="Livello_2-2" data-name="Livello 2"><g id="Livello_1-2-2" data-name="Livello 1-2"><path class="cls-1" d="M388.57,108.77a92.6,92.6,0,0,0-23.78,3L324.35,6.07A10,10,0,0,0,315.21,0H283.33a9.6,9.6,0,0,0-9.57,9.61,9.3,9.3,0,0,0,9,9.61h25.88L326.34,65.3H186.7l-4-10.62c9.61-1.52,18.21-3,19.73-3.55,4-.5,8.13-3.54,8.13-8.13V38.49a3.46,3.46,0,0,0-3.34-3.58H144.71a5.84,5.84,0,0,0-6.07,5.61,3.53,3.53,0,0,0,0,.46s-1,21.25,8.13,19.73c3-.51,9.11-1.52,16.7-3l6,15.68L137.12,119.9A93.69,93.69,0,0,0,92.6,108.77,92.61,92.61,0,0,0,92.6,294c47.56,0,87-36.43,92.08-83h45c3,0,5.56-1,7.08-3.56L336,91.56l10.62,27.32a92.51,92.51,0,1,0,42-10.12Zm-295.5,166A73.36,73.36,0,1,1,126.5,136.09L85,195.79c-2,3-2,6.58-.5,10.12a9.79,9.79,0,0,0,8.6,5.06H166c-5.06,35.92-35.92,63.75-72.85,63.75Zm18.21-83,30.87-45a75.53,75.53,0,0,1,23.77,45Zm73.87,0A92,92,0,0,0,153.31,131L178.1,95.08l38,96.66Zm48.06-9.1L194.26,84h123Zm155.36,92.08A73.18,73.18,0,0,1,353.66,137.1l25.8,67.76a9.25,9.25,0,0,0,9.11,6.07,8.53,8.53,0,0,0,3.54-.43c5.06-2,7.59-7.59,5.56-12.14l-25.8-67.76a63.69,63.69,0,0,1,17.17-2,73.4,73.4,0,0,1,73.35,73.35c0,40.48-33.42,72.86-73.86,72.86Z"/></g></g></g></g></svg>