<svg xmlns="http://www.w3.org/2000/svg" viewBox="-90 0 600 412.82"><defs><style>.cls-1{fill:#fff;}</style></defs><g id="Livello_2" data-name="Livello 2"><g id="Livello_1-2" data-name="Livello 1"><g id="Livello_2-2" data-name="Livello 2"><g id="Livello_1-2-2" data-name="Livello 1-2"><path class="cls-1" d="M215.27,176.72a6.87,6.87,0,0,0-7.63,6,.34.34,0,0,0,0,.1l-1.1,10.56a6.92,6.92,0,0,1-4.54,5.72l-45.81,15.95h0a6.89,6.89,0,0,0-4.61,6.88v61.44a6.93,6.93,0,0,0,2,4.89l37.28,37.42a6.87,6.87,0,0,1,1.92,4.49v61.92a6.88,6.88,0,0,1-13.76,0h0V335.9a6.87,6.87,0,0,0-2-4.88l-39.82-40.13h0a6.89,6.89,0,0,0-4.89-2H117.14a6.88,6.88,0,0,0-6.88,6.88v55a6.88,6.88,0,0,1-3.09,5.71l-61.95,41.3a6.85,6.85,0,0,1-7.57-11.42l55.72-37.22h0a6.85,6.85,0,0,0,3.09-5.7V295.8a6.88,6.88,0,0,0-13.76,0v44L30,374.91a20.65,20.65,0,0,0,22.84,34.4L114.78,368a20.6,20.6,0,0,0,9.21-17.2V302.68h5.44l35.84,36v53.39a20.64,20.64,0,0,0,41.27,0h0V330.19a20.63,20.63,0,0,0-6-14.58l-35.31-35.42V226.46l41.28-14.38a20.62,20.62,0,0,0,13.75-17.19l1.18-10.53a6.89,6.89,0,0,0-6.07-7.62l-.12,0Z"/><path class="cls-1" d="M75,261.4l7.7-6.19v13.07a6.88,6.88,0,1,0,13.76,0V240.77a6.73,6.73,0,0,0-10.78-5.44l-18.87,15h0a6.85,6.85,0,0,1-5.29,1.44l-41.27-6.29H19.14a6.84,6.84,0,0,1,2.62-13.41l35.42,5.36a6.86,6.86,0,0,0,5.3-1.37l35.38-28.14a24,24,0,0,1,5.5-1.57h6.88a6.89,6.89,0,0,0,6.88-6.88v-2.89a6.9,6.9,0,0,0-4.12-6.29,27.5,27.5,0,1,1,22,0,6.89,6.89,0,0,0-4.13,6.29v2.89a6.88,6.88,0,0,0,6.86,6.88H142a6.93,6.93,0,0,0,4.72-1.93,6.76,6.76,0,0,1,2.47-1.57l40-13.76a6.89,6.89,0,0,0,4.61-5.71l5.85-53.46a6.88,6.88,0,0,1,7.56-6.06,6.89,6.89,0,0,0,1.52-13.69,20.64,20.64,0,0,0-22.8,18.19v0l-5.44,49-20.15,6.88a41.28,41.28,0,1,0-65.52,10l-3.36,1.32-1.52.89-33.71,26.8-32.47-4.88h0a20.64,20.64,0,0,0-9.5,40,27,27,0,0,0,3.3.83l41.28,6.29h0A20.6,20.6,0,0,0,75,261.4Z"/><path class="cls-1" d="M405.62,59.91A20.66,20.66,0,0,0,388.83,55a21.23,21.23,0,0,0-17.2,21.39V165.1h-17.4A41.14,41.14,0,1,0,287,157.24l-20.15-6.88L261.5,102.2a21.24,21.24,0,0,0-20.57-19.65,21,21,0,0,0-20.72,21.25c0,.56,0,1.11.08,1.66l6.91,61.91A20.62,20.62,0,0,0,241,184.56l41.28,14.38v53.73l-35.3,35.42a20.66,20.66,0,0,0-6,14.59v61.15a21.23,21.23,0,0,0,17.19,21.4,20.69,20.69,0,0,0,24.12-20.64V311.21l35.8-36h5.44V391.35a21.22,21.22,0,0,0,17.19,21.39,18.08,18.08,0,0,0,3.45,0,20.63,20.63,0,0,0,20.66-20.62h0V227A6.88,6.88,0,1,0,351,227v165.1a6.89,6.89,0,0,1-6.8,7A5.81,5.81,0,0,1,343,399a7.49,7.49,0,0,1-5.71-7.56V268.29a6.89,6.89,0,0,0-6.88-6.88H315.15a6.82,6.82,0,0,0-4.88,2l-39.84,40.1h0a6.88,6.88,0,0,0-2,4.88v56.2a6.91,6.91,0,0,1-6.81,7,7.32,7.32,0,0,1-1.24-.1,7.5,7.5,0,0,1-5.71-7.57V302.68a6.89,6.89,0,0,1,2-4.89L294,260.37h0a6.88,6.88,0,0,0,2-4.89V194.06a6.85,6.85,0,0,0-4.61-6.53l-45.81-16h0a6.91,6.91,0,0,1-4.55-5.71L234.11,104a6.87,6.87,0,0,1,6-7.6,6.45,6.45,0,0,1,.76,0,7.64,7.64,0,0,1,6.88,6.88l5.78,52.56a6.89,6.89,0,0,0,4.61,5.71l40,13.76h0a6.64,6.64,0,0,1,2.47,1.57,6.87,6.87,0,0,0,4.72,1.92h4.41a6.86,6.86,0,0,0,6.88-6.86V169a6.86,6.86,0,0,0-4.13-6.29,27.52,27.52,0,1,1,22,0,6.86,6.86,0,0,0-4.13,6.29v3a6.88,6.88,0,0,0,6.88,6.88h34.39a13.76,13.76,0,0,0,13.76-13.75V76.43a7.51,7.51,0,0,1,5.64-7.57,6.94,6.94,0,0,1,8,5.66,7.44,7.44,0,0,1,.1,1.15V165.1a27.52,27.52,0,0,1-27.52,27.51H357.9a6.88,6.88,0,0,0,0,13.76h13.76a41.27,41.27,0,0,0,41.28-41.26h0V75.67A20.65,20.65,0,0,0,405.65,60Z"/><path class="cls-1" d="M20.8,82.55A20.63,20.63,0,0,0,41.43,61.92h0V41.27H82.7v15a20.65,20.65,0,1,0,13.76,19.4V6.88A6.86,6.86,0,0,0,89.62,0h-55a6.88,6.88,0,0,0-6.92,6.84V42.51a20.64,20.64,0,1,0-6.88,40Zm55,0a6.88,6.88,0,1,1,4.86-2A6.89,6.89,0,0,1,75.83,82.55ZM41.44,13.76H82.71V27.52H41.44ZM20.8,55a6.88,6.88,0,1,1-6.88,6.88A6.88,6.88,0,0,1,20.8,55Z"/><path class="cls-1" d="M270.23,74.84a20.18,20.18,0,0,0,11.08,3.31,21.27,21.27,0,0,0,17.44-9.36l18.43-29,29,18.5a6.85,6.85,0,0,0,9.48-2v0L370.52,33a6.82,6.82,0,0,0,1.1-5.43,7.19,7.19,0,0,0-3-4.34l-35-22.08a6.88,6.88,0,0,0-9.49,2l-14.41,23.2L297.64,44.85a19.71,19.71,0,0,0-5.18-4.75,20.63,20.63,0,0,0-22.23,34.74Zm61.91-58.47,23.21,14.79-7.49,11.63L324.64,28ZM275.32,53.8a6.9,6.9,0,0,1,5.85-3.15,7.56,7.56,0,0,1,3.71,1,6.91,6.91,0,1,1-9.56,2.14Z"/><path class="cls-1" d="M137.74,64.18a20.66,20.66,0,0,0,20.09,16.24,25.79,25.79,0,0,0,4.47-.48,20.67,20.67,0,0,0,12.93-9l22.22-34.8a6.87,6.87,0,0,0-11.55-7.43L174.06,47.12A19.85,19.85,0,0,0,169,42.41a20.63,20.63,0,0,0-28.48,6.29,20,20,0,0,0-2.75,15.55ZM152,56.06a6.91,6.91,0,0,1,4.34-3,4.78,4.78,0,0,1,1.51,0A6.8,6.8,0,1,1,152,56.18Z"/><path class="cls-1" d="M234.05,55a6.88,6.88,0,0,0,6.88-6.88V20.64a6.88,6.88,0,1,0-13.76,0V48.15A6.87,6.87,0,0,0,234,55Z"/><path class="cls-1" d="M20.8,137.58v20.64a6.88,6.88,0,0,0,13.76,0V137.58a6.88,6.88,0,1,0-13.76,0Z"/><path class="cls-1" d="M172.17,110.06a6.88,6.88,0,1,1-6.88-6.87h0a6.88,6.88,0,0,1,6.88,6.87"/><path class="cls-1" d="M137.74,13.76a6.88,6.88,0,1,1-6.88-6.88,6.88,6.88,0,0,1,6.88,6.88"/></g></g></g></g></svg>